<?xml version="1.0" encoding="UTF-8"?>
<svg id="Camada_1" data-name="Camada 1" xmlns="http://www.w3.org/2000/svg" viewBox="0 0 113.32 107.91">
  <defs>
    <style>
      .cls-1 {
        fill: #c79a3b;
      }
    </style>
  </defs>
  <path class="cls-1" d="M48.88,72.76c-.33-.1-.02-.78-.04-1.04,2.25-.27,4.08-.88,5.34-2.86,4.25-9.88,8.42-19.87,12.3-29.91.46-1.19,1.42-3.23,1.63-4.39s-.5-1.45-1.51-1.27c-.72.12-1.05.51-1.37,1.11-1.48,2.78-2.74,6.78-4,9.79-3.22,7.64-6.51,15.26-9.81,22.85h-.71c-2.74-6.08-5.22-12.29-7.88-18.42-1.62-3.73-3.21-7.67-4.95-11.32-1.39-2.91-2.62-5.07-6.28-5.16l-.11-1.01h10.79c.52-.21.94,0,1.41,0,.43,0,2.82-.1,2.96.1.45,1.23-1.49,1.08-2.36,1.31-1.3.35-2,.76-1.81,2.26.26,2.05,2.48,6.77,3.33,8.93,2.12,5.34,4.41,10.61,6.6,15.92l.55-.98c2.49-6.13,5.3-12.13,7.82-18.24.56-1.36,1.84-3.95,2.04-5.27.38-2.59-1.63-2.62-3.63-2.86v-1.06s18.63,0,18.63,0l-.11,1.01c-.87.18-1.81.32-2.63.67-1.39.61-1.8,1.6-2.43,2.88-2.28,4.63-4.23,10.08-6.21,14.9-2.42,5.92-4.83,11.87-7.01,17.88-.14,1.58,1.32,1.63,2.52,1.7,3.33.2,7.87.18,11.21,0,5.24-.28,8.62-2.46,11.28-6.88.26-.44,1.19-2.45,1.48-2.53.31-.09.82-.07.72.36l-3.58,11.53h-34.19Z"/>
  <path class="cls-1" d="M57.07.03c.14.1.43,1.87.54,2.23.25.77.5,1.1,1.2,1.51.39.23,1.13.29,1.09.79-.03.43-1.11.72-1.47,1-1.57,1.2-.88,4.23.18,5.6,2.52,3.27,6.82,1.3,7.43-2.35-2.17-1.12-.64-4.24,1.54-3.2,1.26.61,1.24,2.47.04,3.12-.21.11-.57.1-.65.2-.16.21-.12,1.1-.1,1.4.2,3.21,2.93,5.05,5.86,3.27.49-.3,1.83-1.58,1.91-2.11.07-.48-.94-1-.39-2.26.89-2,4.13-.6,3.09,1.55-.44.92-1.22.67-1.74.97-.39.23-2.46,4.64-2.77,5.36-.62,1.46-1.14,2.97-1.65,4.48l-.23.12c-9.23-2.65-19.22-2.46-28.47,0-.61-1.9-1.29-3.79-2.11-5.61-.25-.56-2.09-4.29-2.34-4.38-.17-.06-.44,0-.63-.07-1.13-.4-1.7-1.7-.92-2.7,1.12-1.45,3.48-.38,2.97,1.55-.11.4-.52.7-.46.96.1.41,1.07,1.48,1.42,1.77,2.39,1.99,5.42,1.1,6.23-1.91.14-.53.35-1.89.02-2.34-.1-.14-.68-.26-.94-.47-.89-.74-.71-2.46.39-2.92,2.24-.93,3.65,2.04,1.55,3.23.56,4.11,5.61,5.62,7.77,1.73.85-1.52,1.19-3.94-.41-5.09-.5-.36-1.43-.43-1.2-1.12,1.15-.7,1.79-.85,2.26-2.23.14-.41.35-1.98.63-2.08.09-.03.32-.05.39,0ZM56.69,12.18c-.16.05-2.09,2.2-2.26,2.47-.13.22-.32.49-.3.75.05.79,1.96,2.37,2.67,2.76.71-.26,2.75-2.15,2.72-2.85-.03-.78-1.98-2.29-2.38-3.03-.13-.13-.28-.14-.45-.09ZM47.77,13.34c-.28.83-1.78,2.4-1.65,3.23.08.49,2.1,2.11,2.53,2.08.24-.02.93-1,1.1-1.27.76-1.18,1.1-1.42.02-2.46-.4-.38-1.29-1.18-1.71-1.47-.1-.07-.12-.16-.3-.11ZM65.74,13.34c-.42.47-2.57,1.95-2.62,2.43s1.42,2.86,1.91,2.87c.44.01,2.5-1.67,2.53-2.18.02-.35-1.64-3.13-1.82-3.13ZM42.7,15.93c-.73,1.82-.69,2.71,1.23,3.53.2-.05.77-1.89.71-2.13-.08-.35-1.73-1.55-1.94-1.4ZM69.58,19.47c.23.2,1.71-1.05,1.87-1.38l-.64-2.15-1.78,1.29.54,2.25Z"/>
  <path class="cls-1" d="M94.69,107.66l.07-.36c1.11-.19,1.99-.44,2.16-1.71-.07-4.6.08-9.23.14-13.78.01-1.2-1.39-2-2.49-2.06l.05-.36,4.52-.09,10.87,13.53v-11.5c0-.05-.31-.71-.37-.81-.53-.79-1.77-.67-1.87-.79-.07-.08.06-.47.18-.47h5.36l-.02.45c-.54.18-1.29.21-1.71.65-.15.16-.51,1.03-.51,1.2v16.21c-.39.14-.53.11-.83-.18l-12.26-15.27v12.79s.14.79.17.89c.29.97,1.24,1.16,2.12,1.28l.07.36h-5.66Z"/>
  <path class="cls-1" d="M40.45,89.27c.07,1.04.08,2.08.12,3.12,0,.21.28.78-.06.88-.45.14-.72-1.22-.98-1.61-.35-.54-.95-.96-1.58-1.13-.18-.05-.97-.2-1.1-.2h-5.48v7.19c1.74.02,5.74.74,6.63-1.22.18-.4.08-1.12.68-1.02v5.9h-.46c-.16-.96-.44-1.91-1.4-2.33-.12-.05-.84-.27-.91-.27h-4.54v6.9c0,.13.23.83.36.94.49.42,3.85.35,4.66.3,1.91-.12,3.17-.61,4.28-2.21.26-.37.68-1.55,1.14-1.45.21.05.11.22.1.33-.16,1.37-.79,2.86-.86,4.27h-14.5l.12-.41c1.23-.12,1.95-.47,2.11-1.78-.21-4.42.32-9.16.02-13.55-.05-.78-.15-1.53-.95-1.88-.58-.26-1.48,0-1.3-.77h13.91Z"/>
  <path class="cls-1" d="M77.12,89.27v.46c-.92.08-1.96.25-1.6,1.43l4.6,7.07c.2.05,1-1.29,1.17-1.54.86-1.31,1.81-2.77,2.59-4.13.42-.73,1.57-2.19.29-2.62-.51-.17-1.21.08-1.04-.67h5.42l-.11.54c-.97.07-1.63.6-2.24,1.3-2.02,2.31-3.55,5.78-5.39,8.29-.28.83-.25,5.64,0,6.54.3,1.1,1.28,1.25,2.26,1.37l.07.36h-7.24s-.07-.29-.07-.29c.94-.29,1.94-.29,2.19-1.47.13-.64.16-5.73,0-6.26-1.96-2.59-3.55-5.84-5.56-8.36-.5-.62-.94-1.06-1.7-1.37-.4-.16-.81.1-.71-.65h7.07Z"/>
  <path class="cls-1" d="M7.09,89.27v.46c-.88.15-1.95.19-1.86,1.34l5.29,12.94c.26-.19.4-.65.53-.95,1.64-3.77,3.15-7.61,4.75-11.4.29-1.53-.42-1.73-1.74-1.92-.05-.13.05-.47.18-.47h5.25c.13.73-.47.55-.94.77-.74.34-1.08.91-1.48,1.59l-6.94,16.17c-.28.22-.62.12-.75-.22-1.43-3.33-2.79-6.7-4.25-10.01-.64-1.45-2.5-6.23-3.39-7.1-.47-.45-1.08-.58-1.7-.72-.05-.13.05-.47.18-.47h6.9Z"/>
  <path class="cls-1" d="M57.55,89.27l-.11.54c-1.1.07-1.95.3-2.12,1.54.28,4.52-.41,9.56-.02,14.03.1,1.15.52,1.27,1.59,1.36,2.89.23,6,.17,7.75-2.39.25-.36.64-1.5,1.09-1.38l.16.27-.95,4.25-.17.18h-14.43s.07-.35.07-.35c1.51-.24,2.06-.59,2.18-2.17-.33-4.33.43-9.29-.02-13.55-.15-1.44-.9-1.66-2.21-1.86v-.46s7.18,0,7.18,0Z"/>
  <path class="cls-1" d="M70.95,23.16c.57.62.13,1.44-.62,1.61-8.72-2.28-18.28-2.29-27-.01-.7-.07-1.1-.83-.75-1.45.3-.53,2.15-.83,2.79-.98,7.22-1.63,16.52-1.66,23.7.16.43.11,1.61.38,1.87.66Z"/>
  <path class="cls-1" d="M52.48,80.96c3.38-.53,3.81-.95,4.33-4.33.53,3.38.95,3.81,4.33,4.33-3.38.53-3.81.95-4.33,4.33-.53-3.38-.95-3.81-4.33-4.33Z"/>
</svg>